<svg width="34" height="34" viewBox="0 0 34 34" fill="none" xmlns="http://www.w3.org/2000/svg">
<path d="M23.3666 20.6829L23.3666 11.1369C23.3665 10.9879 23.3072 10.8449 23.2018 10.7395C23.0964 10.6341 22.9535 10.5749 22.8044 10.5748L13.2585 10.5748C13.1128 10.5799 12.9748 10.6414 12.8736 10.7463C12.7724 10.8511 12.7158 10.9912 12.7158 11.1369C12.7158 11.2827 12.7724 11.4227 12.8736 11.5276C12.9748 11.6325 13.1128 11.6939 13.2585 11.6991L21.4461 11.6997L10.7394 22.4064C10.6339 22.5119 10.5747 22.655 10.5747 22.8042C10.5747 22.9534 10.6339 23.0965 10.7394 23.2019C10.8449 23.3074 10.988 23.3667 11.1372 23.3667C11.2863 23.3667 11.4294 23.3074 11.5349 23.2019L22.2416 12.4952L22.2423 20.6829C22.2474 20.8285 22.3089 20.9665 22.4138 21.0677C22.5186 21.169 22.6587 21.2255 22.8044 21.2255C22.9502 21.2255 23.0902 21.169 23.1951 21.0677C23.2999 20.9665 23.3614 20.8285 23.3666 20.6829Z" fill="black" stroke="black" stroke-width="1.5"/>
</svg>
