<svg viewBox="0 0 24 24" fill="none" xmlns="http://www.w3.org/2000/svg">
<path d="M15.75 7.5H12.75V4.5H11.25V7.5H8.25V9H11.25V12H12.75V9H15.75V7.5Z" fill="#8B8B93"/>
<path d="M21 18H12.75V15H17.25C17.6476 14.9994 18.0288 14.8412 18.31 14.56C18.5912 14.2788 18.7494 13.8976 18.75 13.5V3C18.75 2.60218 18.592 2.22064 18.3107 1.93934C18.0294 1.65804 17.6478 1.5 17.25 1.5H6.75C6.35218 1.5 5.97064 1.65804 5.68934 1.93934C5.40804 2.22064 5.25 2.60218 5.25 3V13.5C5.25 13.8978 5.40804 14.2794 5.68934 14.5607C5.97064 14.842 6.35218 15 6.75 15H11.25V18H3C2.60218 18 2.22064 18.158 1.93934 18.4393C1.65804 18.7206 1.5 19.1022 1.5 19.5V22.5H3V19.5H11.25V22.5H12.75V19.5H21V22.5H22.5V19.5C22.5 19.1022 22.342 18.7206 22.0607 18.4393C21.7794 18.158 21.3978 18 21 18ZM6.75 3H17.25L17.2515 13.5H6.75V3Z" fill="#8B8B93"/>
</svg>
