<svg viewBox="0 0 26 26" xmlns="http://www.w3.org/2000/svg">
<path d="M22.4668 14.9189H17.4397C16.7734 14.9182 16.1339 15.1818 15.6616 15.6519C15.1894 16.122 14.9228 16.7602 14.9204 17.4266V22.4536C14.92 22.7846 14.985 23.1123 15.1115 23.4181C15.238 23.724 15.4235 24.0018 15.6575 24.2358C15.8915 24.4698 16.1694 24.6554 16.4752 24.7819C16.781 24.9084 17.1088 24.9733 17.4397 24.973H22.4668C23.1329 24.9702 23.7708 24.7035 24.2406 24.2313C24.7104 23.759 24.9738 23.1198 24.9731 22.4536V17.4266C24.9735 17.0974 24.9089 16.7713 24.7831 16.467C24.6572 16.1628 24.4726 15.8864 24.2398 15.6536C24.007 15.4208 23.7306 15.2361 23.4263 15.1103C23.1221 14.9845 22.796 14.9199 22.4668 14.9202M8.50655 14.9189H3.47952C2.81348 14.9227 2.17601 15.1899 1.70637 15.6622C1.23674 16.1345 0.973135 16.7735 0.973146 17.4396V22.4666C0.972805 22.7958 1.0374 23.1219 1.16324 23.4262C1.28907 23.7304 1.47368 24.0068 1.70649 24.2396C1.93929 24.4724 2.21573 24.657 2.51997 24.7829C2.82421 24.9087 3.15029 24.9733 3.47952 24.973H8.50655C9.17269 24.9737 9.81194 24.7102 10.2842 24.2404C10.7564 23.7706 11.0232 23.1327 11.0259 22.4666V17.4396C11.0262 17.1086 10.9613 16.7809 10.8348 16.4751C10.7083 16.1692 10.5228 15.8914 10.2888 15.6574C10.0548 15.4233 9.77688 15.2378 9.47107 15.1113C9.16525 14.9848 8.83749 14.9199 8.50655 14.9202M8.50655 0.972978H3.47952C3.15029 0.972637 2.82421 1.03723 2.51997 1.16307C2.21573 1.28891 1.93929 1.47351 1.70649 1.70632C1.47368 1.93912 1.28907 2.21556 1.16324 2.5198C1.0374 2.82404 0.972805 3.15012 0.973146 3.47936V8.50638C0.972453 9.17252 1.23588 9.81177 1.7057 10.284C2.17551 10.7563 2.81339 11.023 3.47952 11.0257H8.50655C8.83749 11.0261 9.16525 10.9611 9.47107 10.8347C9.77688 10.7082 10.0548 10.5226 10.2888 10.2886C10.5228 10.0546 10.7083 9.77672 10.8348 9.4709C10.9613 9.16508 11.0262 8.83732 11.0259 8.50638V3.47936C11.0232 2.81322 10.7564 2.17534 10.2842 1.70553C9.81194 1.23571 9.17269 0.972286 8.50655 0.972978ZM22.4668 0.972978H17.4397C16.7736 0.972286 16.1344 1.23571 15.6621 1.70553C15.1899 2.17534 14.9231 2.81322 14.9204 3.47936V8.50638C14.9207 9.17445 15.1863 9.81506 15.6587 10.2875C16.1311 10.7598 16.7717 11.0254 17.4397 11.0257H22.4668C23.1329 11.023 23.7708 10.7563 24.2406 10.284C24.7104 9.81177 24.9738 9.17252 24.9731 8.50638V3.47936C24.9735 3.15012 24.9089 2.82404 24.7831 2.5198C24.6572 2.21556 24.4726 1.93912 24.2398 1.70632C24.007 1.47351 23.7306 1.28891 23.4263 1.16307C23.1221 1.03723 22.796 0.972637 22.4668 0.972978Z" stroke-width="1.94595" stroke-linecap="round" stroke-linejoin="round"/>
</svg>
