<svg viewBox="0 0 24 24" fill="none" xmlns="http://www.w3.org/2000/svg">
<path d="M21.2501 9.5H19.7501M4.25006 9.5H5.75006M12.7501 1V2.5M6.73956 3.49L7.79956 4.551M18.7601 3.49L17.6991 4.551M13.4056 6.2135C8.99606 10.0625 4.24856 14.9035 2.56206 16.6485C2.16706 17.057 2.04106 17.6525 2.26856 18.1725C2.39256 18.455 2.53906 18.7635 2.69056 19.026C2.84206 19.2885 3.03606 19.5695 3.21906 19.818C3.55506 20.2755 4.13406 20.4635 4.68506 20.326C7.03956 19.7375 13.6061 18.047 19.1441 16.153" stroke="#8B8B93" stroke-width="1.5" stroke-linecap="round" stroke-linejoin="round"/>
<path d="M10.8059 8.59649C10.8059 8.59649 11.8514 9.64249 13.6239 12.7125C15.3964 15.7825 15.7794 17.211 15.7794 17.211M11.3479 18.6785L11.6449 19.7875C11.7229 20.0787 11.7428 20.3824 11.7034 20.6813C11.664 20.9802 11.5662 21.2684 11.4154 21.5295C11.2647 21.7905 11.064 22.0194 10.8248 22.2029C10.5856 22.3864 10.3126 22.521 10.0214 22.599C9.73018 22.677 9.42647 22.6969 9.12757 22.6575C8.82868 22.6181 8.54048 22.5203 8.2794 22.3695C8.01833 22.2188 7.78951 22.0181 7.606 21.7789C7.42249 21.5397 7.2879 21.2667 7.20989 20.9755L6.96289 20.0515M13.0229 5.54999C13.0229 5.54999 14.2214 6.86049 16.6059 10.991C18.9904 15.1215 19.5264 16.8145 19.5264 16.8145" stroke="#8B8B93" stroke-width="1.5" stroke-linecap="round" stroke-linejoin="round"/>
</svg>
