<svg viewBox="0 0 24 24" fill="none" xmlns="http://www.w3.org/2000/svg">
<path d="M12 12L20.073 7.37499M12 12V21.25M12 12L7.963 9.68799M20.073 7.37499C19.7929 6.89406 19.3911 6.49537 18.908 6.21899L16.25 4.69599M20.073 7.37499C20.348 7.84699 20.5 8.38999 20.5 8.95499V15.045C20.4997 15.601 20.3522 16.1469 20.0726 16.6275C19.793 17.108 19.3912 17.506 18.908 17.781L13.592 20.827C13.1073 21.1045 12.5585 21.2503 12 21.25M12 21.25C11.4415 21.2503 10.8927 21.1045 10.408 20.827L5.092 17.781C4.107 17.217 3.5 16.175 3.5 15.045V8.95499C3.49985 8.39992 3.64685 7.85474 3.926 7.37499M7.963 9.68799L3.926 7.37499M7.963 9.68799L16.25 4.69599M16.25 4.69599L13.592 3.17299C13.1074 2.89509 12.5586 2.74887 12 2.74887C11.4414 2.74887 10.8926 2.89509 10.408 3.17299L5.092 6.21899C4.60855 6.49523 4.2064 6.89394 3.926 7.37499" stroke="#8B8B93" stroke-width="1.5" stroke-linejoin="round"/>
</svg>
